<svg xmlns="http://www.w3.org/2000/svg" viewBox="0 0 23.9 25.89"><defs><style>.cls-1{fill:#fff;}</style></defs><g id="图层_2" data-name="图层 2"><g id="Intermezzi"><path class="cls-1" d="M12.11,0H10.48V5.68C9.59,4.76,8.88,2.11,8.24,0H6.09V19H8.24V7A33.62,33.62,0,0,1,10.48,19h2.78A33.62,33.62,0,0,1,15.5,7V19h2.15V0H15.5c-.64,2.11-1.35,4.76-2.24,5.68V0H12"/><polygon class="cls-1" points="11.95 21.21 10.93 21.21 10.93 23.66 2.25 23.66 2.25 6.3 4.04 6.3 4.04 4.79 0 4.79 0 25.89 11.84 25.89 12.06 25.89 23.9 25.89 23.9 4.79 19.86 4.79 19.86 6.3 21.65 6.3 21.65 23.66 12.97 23.66 12.97 21.21 11.95 21.21"/></g></g></svg>