<svg xmlns="http://www.w3.org/2000/svg" viewBox="0 0 26.81 26.87"><defs><style>.cls-1{fill:#fff;}</style></defs><g id="图层_2" data-name="图层 2"><g id="Sidestory"><polygon class="cls-1" points="0 6.47 5.87 6.47 5.87 8.47 2.25 8.47 2.25 18.31 5.87 18.31 5.87 20.22 0 20.22 0 6.47"/><polygon class="cls-1" points="26.81 6.47 20.93 6.47 20.93 8.47 24.56 8.47 24.56 18.31 20.93 18.31 20.93 20.22 26.81 20.22 26.81 6.47"/><path class="cls-1" d="M17.51,13.44v.65a2.35,2.35,0,0,1-2.35,2.35H13.42a.15.15,0,0,0-.12.25l4.11,4.91a.45.45,0,0,1,.1.27v5H9V22H11.5v2.67a.32.32,0,0,0,.32.32h2.8a.26.26,0,0,0,.26-.25V21.93a.46.46,0,0,0-.16-.35l-4.35-3.9A4.17,4.17,0,0,1,9,14.57V12.78a2.35,2.35,0,0,1,2.35-2.34h1.73a.16.16,0,0,0,.12-.26L9.09,5.27A.38.38,0,0,1,9,5V0h8.52V4.85H15V2.18a.32.32,0,0,0-.32-.32h-2.8a.25.25,0,0,0-.25.25V4.94a.45.45,0,0,0,.15.35l4.35,3.9a4.18,4.18,0,0,1,1.39,3.11Zm-5.89-.1v1.25H15v-2.4H11.62v1.25"/></g></g></svg>