<svg xmlns="http://www.w3.org/2000/svg" viewBox="0 0 26.78 26.78"><defs><style>.cls-1{fill:#fff;}</style></defs><g id="图层_2" data-name="图层 2"><g id="IS"><path class="cls-1" d="M13.41,26.78,0,13.38,13.38,0l13.4,13.41ZM24.35,13.31,13.41,2.37l-11,11L13.36,24.3ZM15.29,6.62,13.76,5.09l-4,4,2.09,2.08L7.55,15.46l5.91,5.91L15,19.85l-4.36-4.36,4-4-2.1-2.1Zm-4.91,4.91L8.84,10,5.46,13.38,7,14.91Zm10.77,2.15L19.5,12l-3.41,3.42,1.65,1.64Zm-3.77-5L15.84,7.17l-1.9,1.89,2.15,2.15-4.26,4.27,3.76,3.76L16.83,18l-2.21-2.21,4.32-4.31L16.78,9.31Z"/></g></g></svg>