<svg xmlns="http://www.w3.org/2000/svg" viewBox="0 0 26.81 16.6"><defs><style>.cls-1{fill:#fff;}</style></defs><g id="图层_2" data-name="图层 2"><g id="Record"><rect class="cls-1" width="26.81" height="1.68"/><path class="cls-1" d="M0,3.48H26.81V16.6H0ZM7.44,7a3,3,0,1,0,3,3A3,3,0,0,0,7.44,7ZM1.77,13.83h3.1a4.62,4.62,0,0,1-.58-7.22H1.77Zm17.7-7.22-1.12.58H11.11a4.64,4.64,0,0,1-.4,6.06h7.64l1.07.58h5.66V6.61Z"/><path class="cls-1" d="M21.7,10A2.29,2.29,0,1,1,19.42,7.7,2.28,2.28,0,0,1,21.7,10Zm-2.28-1.1A1.1,1.1,0,1,0,20.51,10,1.1,1.1,0,0,0,19.42,8.89Z"/><path class="cls-1" d="M9.61,10A2.17,2.17,0,1,1,7.44,7.82,2.17,2.17,0,0,1,9.61,10ZM7.44,9a1,1,0,1,0,1,1A1,1,0,0,0,7.44,9Z"/></g></g></svg>