<svg id="图层_2" data-name="图层 2" xmlns="http://www.w3.org/2000/svg" viewBox="0 0 1299.34 258.41"><defs><style>.cls-1{fill:#f3f0e7;}</style></defs><path class="cls-1" d="M461.91,440q0,33.38-28.13,53.22T353.89,513.1c-30.95,0-31.4.42-82.32.42V468.77h87.37c15.34,0,26.09-2.09,32.53-7.12s9.65-11.42,9.65-19.15q0-9.48-7.6-16.15t-20.33-12.47q-12.74-5.81-29.16-12.47-10.27-4.21-22.18-10a124.35,124.35,0,0,1-22.8-14.4,71.18,71.18,0,0,1-17.87-20.9q-7-12.28-7-29.5c0-22.48,12-40,29.79-52.51s38.94-18.8,69.61-18.8c15.34,0,33.76.54,87.77.54V299H371.68c-3.55,0-20.94,2.85-27.24,7.54S335,317.35,335,324.84q0,13.35,14,21.07t41.48,19a252.25,252.25,0,0,1,38.41,19q15.81,9.84,24.44,23.18T461.91,440Z" transform="translate(-36.66 -255.29)"/><polyline class="cls-1" points="161.88 0 230.91 0 227.83 258.23 161.88 258.23 161.88 100.28 62.86 258.23 0 258.23 161.88 0 227.83 0"/><polyline class="cls-1" points="562.95 43.74 491.87 43.74 491.87 258.41 431.79 258.41 431.79 0 562.95 0"/><path class="cls-1" d="M684.67,255.29c36.29,0,63.06,6.6,80.34,19.37s25.92,32.14,25.92,58.15q0,17.7-6.9,30.89a70.61,70.61,0,0,1-18.27,22.39,108.54,108.54,0,0,1-24.42,15l78.47,112.63H757.17l-63.56-99.26h-30.2v99H607.1V255.51Zm-4.11,45H663.41V370h18.27q28,0,40.08-9t12.12-26.73q0-18.43-13-26.19T680.56,300.3Z" transform="translate(-36.66 -255.29)"/><polyline class="cls-1" points="846.63 127.03 803.13 127.03 803.13 258.41 766.36 258.41 766.36 100.25 846.63 100.25"/><polyline class="cls-1" points="837.73 189.5 803.13 189.5 803.13 162.73 837.73 162.73"/><polyline class="cls-1" points="846.25 258.41 802.75 258.41 802.75 231.35 846.25 231.35"/><polyline class="cls-1" points="921.21 100.25 960.35 100.25 960.35 258.41 921.21 258.41 921.21 161.67 859.57 258.41 820.43 258.41 921.21 100.25 960.35 100.25"/><path class="cls-1" d="M1253.61,355.55c22.15,0,38.5,4.09,49.05,11.88s15.82,19.62,15.82,35.5a40.1,40.1,0,0,1-4.22,18.85,43.07,43.07,0,0,1-11.15,13.67,66.31,66.31,0,0,1-14.9,9.15L1336,513.17h-38.24l-38.69-60.41h-18.43v60.41h-34.37V355.74Zm-2.5,27.53h-10.47v42.56h11.15q17.07,0,24.47-5.52t7.39-16.31q0-11.25-8-16T1251.11,383.08Z" transform="translate(-36.66 -255.29)"/><polyline class="cls-1" points="1165.03 127.03 1121.53 127.03 1121.53 258.41 1084.75 258.41 1084.75 100.25 1165.03 100.25"/><polyline class="cls-1" points="1156.13 189.5 1121.53 189.5 1121.53 162.73 1156.13 162.73"/><polyline class="cls-1" points="1164.65 258.41 1121.15 258.41 1121.15 231.35 1164.65 231.35"/><path class="cls-1" d="M1106,382.32" transform="translate(-36.66 -255.29)"/><path class="cls-1" d="M1136.48,433.07q0,40.11-23.38,60.37T1048,513.71h-45.84V355.55H1053q25.41,0,44.14,8.86a65.74,65.74,0,0,1,29,26.13Q1136.48,407.82,1136.48,433.07Zm-114.87-9v21H1050v28.41h21V445.14h28.41v-21H1071v-28.4h-21v28.4Z" transform="translate(-36.66 -255.29)"/></svg>