<svg xmlns="http://www.w3.org/2000/svg" viewBox="0 0 24.17 24.17"><defs><style>.cls-1{fill:#fff;}</style></defs><g id="图层_2" data-name="图层 2"><g id="Storyset"><path class="cls-1" d="M24.17,12.08A12.09,12.09,0,1,1,12.08,0,12.09,12.09,0,0,1,24.17,12.08Zm-12.81,0a.73.73,0,0,0,.72.73.73.73,0,0,0,.73-.73.73.73,0,0,0-.73-.72A.72.72,0,0,0,11.36,12.08Zm-.64,2.1a2.48,2.48,0,0,1-1.13-2,.53.53,0,0,1,0-.13l-7,3.09a10.16,10.16,0,0,0,2.08,3.61Zm8.8,4.59a9.82,9.82,0,0,0,2.07-3.59l-7-3.1v.13a2.48,2.48,0,0,1-1.13,2ZM14.17,2.3A10,10,0,0,0,10,2.3l1,7.55a2.5,2.5,0,0,1,1.12-.27,2.43,2.43,0,0,1,1.14.28ZM10,11.42a2.08,2.08,0,0,0-.11.66,2.16,2.16,0,0,0,1.71,2.11l.26-1.26a.86.86,0,0,1-.68-.85.75.75,0,0,1,0-.26Zm2.49,2.77a2.16,2.16,0,0,0,1.7-2.11,2.07,2.07,0,0,0-.1-.66l-1.22.4a1.09,1.09,0,0,1,0,.26.87.87,0,0,1-.69.85Zm-.45-3a.89.89,0,0,1,.65.28l.95-.86a2.15,2.15,0,0,0-3.19,0l.95.86A.88.88,0,0,1,12.08,11.22Z"/></g></g></svg>